HIERARCHY
ROOT Hips
{
	OFFSET 0.00000 0.00000 0.00000
	CHANNELS 6 Xposition Yposition Zposition Zrotation Yrotation Xrotation 
	JOINT LHipJoint
	{
		OFFSET 0 0 0
		CHANNELS 3 Zrotation Yrotation Xrotation
		JOINT LeftHip
		{
			OFFSET 1.48831 -1.59570 0.95625
			CHANNELS 3 Zrotation Yrotation Xrotation
			JOINT LeftKnee
			{
				OFFSET 2.20856 -6.06797 0.00000
				CHANNELS 3 Zrotation Yrotation Xrotation
				JOINT LeftAnkle
				{
					OFFSET 2.62924 -7.22379 0.00000
					CHANNELS 3 Zrotation Yrotation Xrotation
					JOINT LeftToe
					{
						OFFSET 0.16802 -0.46163 2.41673
						CHANNELS 3 Zrotation Yrotation Xrotation
						End Site
						{
							OFFSET 0.00000 -0.00000 1.23760
						}
					}
				}
			}
		}
	}
	JOINT RHipJoint
	{
		OFFSET 0 0 0
		CHANNELS 3 Zrotation Yrotation Xrotation
		JOINT RightHip
		{
			OFFSET -1.56796 -1.59570 0.95625
			CHANNELS 3 Zrotation Yrotation Xrotation
			JOINT RightKnee
			{
				OFFSET -2.29239 -6.29829 0.00000
				CHANNELS 3 Zrotation Yrotation Xrotation
				JOINT RightAnkle
				{
					OFFSET -2.66963 -7.33475 0.00000
					CHANNELS 3 Zrotation Yrotation Xrotation
					JOINT RightToe
					{
						OFFSET -0.18185 -0.49964 2.34359
						CHANNELS 3 Zrotation Yrotation Xrotation
						End Site
						{
							OFFSET -0.00000 -0.00000 1.20477
						}
					}
				}
			}
		}
	}
	JOINT lowerback
	{
		OFFSET 0 0 0
		CHANNELS 3 Zrotation Yrotation Xrotation
		JOINT Chest
		{
			OFFSET 0.03505 2.15832 -0.34324
			CHANNELS 3 Zrotation Yrotation Xrotation
			JOINT Chest2
			{
				OFFSET -0.01089 2.17963 0.04689
				CHANNELS 3 Zrotation Yrotation Xrotation
				JOINT lowerneck
				{
					OFFSET 0 0 0
					CHANNELS 3 Zrotation Yrotation Xrotation
					JOINT Neck
					{
						OFFSET 0.04686 1.69404 0.22159
						CHANNELS 3 Zrotation Yrotation Xrotation
						JOINT Head
						{
							OFFSET 0.00265 1.69305 -0.01513
							CHANNELS 3 Zrotation Yrotation Xrotation
							End Site
							{
								OFFSET -0.00415 1.80215 -0.03034
							}
						}
					}
				}
				JOINT LeftCollar
				{
					OFFSET 0 0 0
					CHANNELS 3 Zrotation Yrotation Xrotation
					JOINT LeftShoulder
					{
						OFFSET 3.67184 1.11724 -0.19002
CHANNELS 3 Zrotation Xrotation Yrotation
						JOINT LeftElbow
						{
OFFSET 0 -5.177140 -0.000000
CHANNELS 3 Zrotation Xrotation Yrotation
							JOINT LeftWrist
							{
OFFSET 0 -3.436790 -0.000000
CHANNELS 3 Zrotation Xrotation Yrotation
								JOINT lhand
								{
									OFFSET 0 0 0
CHANNELS 3 Zrotation Xrotation Yrotation
									JOINT LFingers
									{
OFFSET 0 -0.573120 -0.000000
CHANNELS 3 Zrotation Xrotation Yrotation
										End Site
										{
OFFSET 0 -0.462060 -0.000000
										}
									}
								}
								JOINT LThumb
								{
OFFSET 0 0.000000 0.000000
CHANNELS 3 Zrotation Xrotation Yrotation
									End Site
									{
OFFSET 0 -0.469120 0.469120
									}
								}
							}
						}
					}
				}
				JOINT RightCollar
				{
					OFFSET 0 0 0
					CHANNELS 3 Zrotation Yrotation Xrotation
					JOINT RightShoulder
					{
						OFFSET -3.59596 0.95831 -0.26050
CHANNELS 3 Zrotation Xrotation Yrotation
						JOINT RightElbow
						{
OFFSET 0 -5.239080 -0.000000
CHANNELS 3 Zrotation Xrotation Yrotation
							JOINT RightWrist
							{
OFFSET 0 -3.464850 -0.000000
CHANNELS 3 Zrotation Xrotation Yrotation
								JOINT rhand
								{
									OFFSET 0 0 0
CHANNELS 3 Zrotation Xrotation Yrotation
									JOINT RFingers
									{
OFFSET 0 -0.608750 -0.000000
CHANNELS 3 Zrotation Xrotation Yrotation
										End Site
										{
OFFSET 0 -0.490790 -0.000000
										}
									}
								}
								JOINT RThumb
								{
OFFSET 0 0.000000 0.000000
CHANNELS 3 Zrotation Xrotation Yrotation
									End Site
									{
OFFSET 0 -0.498290 0.498290
									}
								}
							}
						}
					}
				}
			}
		}
	}
}
MOTION
Frames: 12
Frame Time: 0.008333333333333333
-0.640361 16.344880 -22.803516 -174.591740 -42.931370 174.549821 0.000000 0.000000 0.000000 -13.751551 6.708187 -3.886428 1.744822 8.313045 23.669048 1.156956 4.320115 -22.301458 0.157254 -2.554860 -7.041840 0.000000 0.000000 0.000000 21.860038 13.137714 -5.387659 -3.432744 -11.364704 33.519933 -1.400129 0.842925 -22.121878 -0.000437 -0.140036 0.384675 4.155057 -1.417840 -1.636286 1.946639 -2.282158 3.857065 -0.446028 -1.072561 4.832700 -3.420716 -5.635008 -6.618760 4.732326 -9.330181 21.239496 1.238336 -4.632695 8.028985 0.000000 0.000000 0.000000 0.402747 3.765616 -16.459074 17.062951 -26.940610 4.115766 17.000333 -15.141202 -10.593899 0.000000 0.000000 0.000000 -7.125000 0.000000 0.000000 -8.901521 40.884743 -0.911478 0.000000 0.000000 0.000000 -24.358558 -7.171964 48.116721 -73.386379 -58.929443 -45.664079 -41.438985 -23.463945 7.834899 0.000000 0.000000 0.000000 7.125000 0.000000 0.000000 -12.822850 40.053609 -1.593873
-0.693925 16.340654 -22.725340 -174.446851 -41.940012 174.545048 0.000000 0.000000 0.000000 -13.939622 7.173158 -4.116811 1.770386 8.370413 23.844986 1.190064 4.567064 -22.720187 0.147188 -2.472386 -6.813109 0.000000 0.000000 0.000000 21.687065 13.750231 -5.619162 -3.464632 -11.411667 33.681168 -1.353865 1.034828 -21.690410 -0.000156 -0.077843 0.213912 4.037769 -1.343274 -1.667000 1.846264 -2.172611 3.871598 -0.479523 -1.018324 4.868788 -3.269449 -5.370508 -6.799849 4.681385 -9.031059 21.653023 1.213712 -4.487315 8.176865 0.000000 0.000000 0.000000 0.635860 3.514542 -16.611755 17.105052 -26.996038 4.134915 16.849524 -15.220122 -10.645703 0.000000 0.000000 0.000000 -7.125000 0.000000 0.000000 -9.043020 40.924517 -0.917171 0.000000 0.000000 0.000000 -25.583109 -7.379172 50.124835 -77.660392 -59.413768 -49.334831 -41.189363 -23.869067 8.449371 0.000000 0.000000 0.000000 7.125000 0.000000 0.000000 -12.683628 40.815043 -1.332832
-0.747141 16.335250 -22.645627 -174.357693 -41.004341 174.514456 0.000000 0.000000 0.000000 -14.171093 7.643533 -4.285992 1.793265 8.421420 24.001613 1.223140 4.770692 -23.110882 0.135629 -2.373758 -6.539715 0.000000 0.000000 0.000000 21.450064 14.232820 -5.855775 -3.503578 -11.468812 33.877705 -1.304143 1.275644 -21.212438 0.000000 -0.000365 0.000993 3.924950 -1.279265 -1.659317 1.717027 -2.075851 3.916650 -0.545241 -0.969728 4.913313 -3.089682 -5.105046 -6.955769 4.641482 -8.733241 22.023741 1.189916 -4.340126 8.306414 0.000000 0.000000 0.000000 0.904269 3.221319 -16.495755 17.207515 -27.130500 4.181545 15.690990 -15.846614 -11.320390 0.000000 0.000000 0.000000 -7.125000 0.000000 0.000000 -10.191501 41.508120 -0.887751 0.000000 0.000000 0.000000 -26.713856 -7.678979 51.987890 -82.232116 -59.770029 -53.278028 -41.849448 -23.985206 9.334252 0.000000 0.000000 0.000000 7.125000 0.000000 0.000000 -13.409086 42.032813 -1.001156
-0.800623 16.329479 -22.565551 -174.406927 -40.135102 174.527471 0.000000 0.000000 0.000000 -14.527327 8.105447 -4.388634 1.809453 8.457311 24.111863 1.257038 4.954522 -23.494538 0.120746 -2.240321 -6.170223 0.000000 0.000000 0.000000 21.068794 14.565522 -6.128394 -3.551779 -11.538677 34.119026 -1.253530 1.581071 -20.705317 -0.000238 0.095963 -0.263595 3.731828 -1.251224 -1.617989 1.554657 -2.020525 3.972992 -0.601979 -0.944024 4.950048 -2.895678 -4.811135 -7.108465 4.595359 -8.399393 22.404099 1.165756 -4.176368 8.437734 0.000000 0.000000 0.000000 1.159193 2.955060 -16.141259 17.362605 -27.333323 4.252463 14.193043 -16.702704 -12.228023 0.000000 0.000000 0.000000 -7.125000 0.000000 0.000000 -11.709742 42.281899 -0.796667 0.000000 0.000000 0.000000 -27.727064 -8.133600 53.691460 -86.711258 -59.956817 -57.152340 -42.005006 -24.134318 10.204021 0.000000 0.000000 0.000000 7.125000 0.000000 0.000000 -13.680231 43.171940 -0.629972
-0.849746 16.323175 -22.485294 -174.316366 -39.218340 174.470269 0.000000 0.000000 0.000000 -14.743957 8.584213 -4.581966 1.835013 8.513561 24.285191 1.296236 5.093109 -23.889879 0.103460 -2.074066 -5.710344 0.000000 0.000000 0.000000 20.824937 14.920910 -6.456211 -3.601215 -11.609965 34.365725 -1.202846 1.894833 -20.192437 -0.000168 0.086197 -0.236889 3.621098 -1.213908 -1.571313 1.440117 -1.959696 4.019558 -0.654576 -0.914672 4.973184 -2.691863 -4.490199 -7.232978 4.541999 -8.029056 22.776266 1.142679 -3.996618 8.560310 0.000000 0.000000 0.000000 1.386271 2.751867 -15.900204 17.467362 -27.469772 4.300679 13.452826 -17.161845 -12.553642 0.000000 0.000000 0.000000 -7.125000 0.000000 0.000000 -12.439775 42.534744 -0.769603 0.000000 0.000000 0.000000 -28.673699 -8.654366 55.240533 -91.112222 -59.992990 -60.963185 -41.038992 -24.605846 10.822320 0.000000 0.000000 0.000000 7.125000 0.000000 0.000000 -12.852987 43.819964 -0.381347
-0.895518 16.316731 -22.405043 -174.403083 -38.316223 174.540275 0.000000 0.000000 0.000000 -15.113510 9.058782 -4.781474 1.851784 8.550329 24.398441 1.329387 5.266484 -24.253021 0.089167 -1.926232 -5.301827 0.000000 0.000000 0.000000 20.414608 15.164304 -6.928247 -3.668765 -11.705984 34.699734 -1.149209 2.244936 -19.642242 -0.000006 0.044111 -0.121291 3.331130 -1.168717 -1.523227 1.317069 -1.878735 4.055911 -0.614764 -0.881702 4.989903 -2.466644 -4.167062 -7.336332 4.453955 -7.651615 23.143350 1.106263 -3.815931 8.676325 0.000000 0.000000 0.000000 1.578249 2.580707 -15.742221 17.523356 -27.542543 4.326523 12.927740 -17.510534 -12.712756 0.000000 0.000000 0.000000 -7.125000 0.000000 0.000000 -12.941928 42.640491 -0.767445 0.000000 0.000000 0.000000 -29.610848 -9.198836 56.701429 -95.516811 -59.884062 -64.775778 -40.176761 -25.039035 11.347050 0.000000 0.000000 0.000000 7.125000 0.000000 0.000000 -12.094752 44.353018 -0.196170
-0.941362 16.311148 -22.323481 -174.561801 -37.532068 174.641262 0.000000 0.000000 0.000000 -15.570134 9.453577 -4.947085 1.860774 8.569804 24.458651 1.357133 5.459817 -24.583214 0.076011 -1.778549 -4.894034 0.000000 0.000000 0.000000 19.893877 15.183463 -7.516996 -3.748094 -11.817397 35.089020 -1.091005 2.597551 -19.046590 -0.000157 0.079228 -0.217707 3.000320 -1.144473 -1.473344 1.180904 -1.824391 4.102620 -0.567231 -0.863398 5.015925 -2.232341 -3.865537 -7.406346 4.359215 -7.300304 23.470021 1.065019 -3.648218 8.774789 0.000000 0.000000 0.000000 1.751408 2.491199 -16.196524 17.440971 -27.435424 4.288545 14.003185 -16.879495 -12.020719 0.000000 0.000000 0.000000 -7.125000 0.000000 0.000000 -11.827714 42.054802 -0.870911 0.000000 0.000000 0.000000 -30.522583 -9.800808 58.022573 -100.003520 -59.615553 -68.651943 -39.654695 -25.587463 11.919933 0.000000 0.000000 0.000000 7.125000 0.000000 0.000000 -11.652147 44.988816 -0.003505
-0.986025 16.304114 -22.242162 -174.516219 -36.760070 174.594023 0.000000 0.000000 0.000000 -15.829394 9.860268 -5.160072 1.882773 8.617478 24.606024 1.392481 5.585068 -24.929144 0.062655 -1.615284 -4.443561 0.000000 0.000000 0.000000 19.578399 15.220525 -8.069550 -3.823799 -11.922086 35.457098 -1.033020 2.903826 -18.456656 -0.000200 0.083967 -0.230694 2.865713 -1.111992 -1.425009 1.076189 -1.773054 4.179150 -0.597306 -0.840549 5.070178 -1.982020 -3.579331 -7.428786 4.275948 -6.965166 23.714561 1.025539 -3.485834 8.838354 0.000000 0.000000 0.000000 1.944523 2.445988 -17.095531 17.260877 -27.200437 4.205897 16.286715 -15.545442 -10.802667 0.000000 0.000000 0.000000 -7.125000 0.000000 0.000000 -9.564754 41.034694 -0.944528 0.000000 0.000000 0.000000 -31.375281 -10.453599 59.139277 -104.579216 -59.179422 -72.591022 -39.157855 -26.173251 12.616353 0.000000 0.000000 0.000000 7.125000 0.000000 0.000000 -11.232394 45.773677 0.217029
-1.026438 16.296236 -22.163387 -174.547499 -35.997399 174.607285 0.000000 0.000000 0.000000 -16.128968 10.354463 -5.438015 1.905889 8.667181 24.759675 1.422578 5.667127 -25.207137 0.054929 -1.512084 -4.159070 0.000000 0.000000 0.000000 19.223390 15.329026 -8.644990 -3.909619 -12.039122 35.870494 -0.978062 3.140517 -17.900459 -0.000200 0.096785 -0.265851 2.649076 -1.064708 -1.388640 0.965220 -1.698209 4.253295 -0.586965 -0.809076 5.131166 -1.723553 -3.292807 -7.399079 4.198491 -6.623665 23.890807 0.989097 -3.319632 8.869696 0.000000 0.000000 0.000000 2.154852 2.347353 -17.562721 17.164683 -27.074394 4.162040 17.150651 -15.044074 -10.455687 0.000000 0.000000 0.000000 -7.125000 0.000000 0.000000 -8.744485 40.755851 -0.923125 0.000000 0.000000 0.000000 -32.194121 -11.113217 60.033335 -108.996731 -58.589754 -76.373552 -38.426637 -26.978750 13.126966 0.000000 0.000000 0.000000 7.125000 0.000000 0.000000 -10.555725 46.282653 0.337724
-1.063640 16.288558 -22.086470 -174.630554 -35.297586 174.642606 0.000000 0.000000 0.000000 -16.458190 10.852750 -5.712794 1.923953 8.705909 24.879618 1.446292 5.713274 -25.412750 0.048881 -1.426580 -3.923322 0.000000 0.000000 0.000000 18.826672 15.403704 -9.254974 -4.006057 -12.168405 36.330445 -0.926554 3.260134 -17.385658 -0.000779 0.181157 -0.497724 2.397609 -1.015718 -1.354647 0.841216 -1.619672 4.336178 -0.570645 -0.777039 5.202983 -1.435716 -3.008574 -7.318914 4.118741 -6.283750 24.017120 0.948136 -3.152592 8.874924 0.000000 0.000000 0.000000 2.395541 2.202026 -17.810176 17.099980 -26.989327 4.132589 17.237106 -15.053163 -10.493203 0.000000 0.000000 0.000000 -7.125000 0.000000 0.000000 -8.676142 40.802198 -0.905844 0.000000 0.000000 0.000000 -32.956204 -11.817718 60.671637 -113.096746 -57.882277 -79.859812 -37.544690 -28.076125 13.329101 0.000000 0.000000 0.000000 7.125000 0.000000 0.000000 -9.704109 46.384883 0.334679
-1.098018 16.280458 -22.011873 -174.705277 -34.652023 174.668294 0.000000 0.000000 0.000000 -16.764947 11.325086 -5.987962 1.941692 8.743450 24.996061 1.468744 5.712349 -25.580403 0.042253 -1.326252 -3.647008 0.000000 0.000000 0.000000 18.448116 15.452348 -9.875129 -4.106621 -12.300880 36.804929 -0.880335 3.177754 -16.944106 -0.003698 0.392172 -1.077538 2.162295 -0.966442 -1.362349 0.709101 -1.544296 4.446948 -0.573109 -0.745854 5.327261 -1.118564 -2.732214 -7.217758 4.041442 -5.959302 24.128552 0.901554 -2.990356 8.872405 0.000000 0.000000 0.000000 2.667807 2.015009 -18.108583 16.997055 -26.853860 4.085950 17.400765 -15.062478 -10.484346 0.000000 0.000000 0.000000 -7.125000 0.000000 0.000000 -8.531745 40.807441 -0.889412 0.000000 0.000000 0.000000 -33.654494 -12.609285 61.102148 -117.000130 -57.056974 -83.151662 -36.936782 -28.861395 13.672728 0.000000 0.000000 0.000000 7.125000 0.000000 0.000000 -9.122021 46.701344 0.386073
-1.130804 16.271312 -21.940763 -174.788492 -34.077847 174.655813 0.000000 0.000000 0.000000 -17.059904 11.796266 -6.226099 1.960056 8.782342 25.116784 1.485687 5.702583 -25.700671 0.038910 -1.272845 -3.499885 0.000000 0.000000 0.000000 18.087888 15.428251 -10.447930 -4.205242 -12.428647 37.265737 -0.848984 2.946699 -16.665094 -0.014257 0.767128 -2.108304 1.915030 -0.936374 -1.335852 0.582731 -1.493468 4.553080 -0.563481 -0.728412 5.426796 -0.828492 -2.450575 -7.050138 3.982351 -5.635883 24.260742 0.865936 -2.832630 8.867531 0.000000 0.000000 0.000000 2.933331 1.867904 -18.390050 16.857091 -26.669011 4.023034 17.367120 -15.121318 -10.474993 0.000000 0.000000 0.000000 -7.125000 0.000000 0.000000 -8.559383 40.794905 -0.895017 0.000000 0.000000 0.000000 -34.321442 -13.479889 61.424782 -120.658932 -56.129514 -86.206086 -36.487761 -29.472661 14.147997 0.000000 0.000000 0.000000 7.125000 0.000000 0.000000 -8.692278 47.198160 0.474802
